<svg width="169" height="33" viewBox="0 0 169 33" fill="none" xmlns="http://www.w3.org/2000/svg">
<path d="M12 2.19429C15.0629 2.19429 17.4057 2.88 19.0286 4.25143C20.6743 5.62286 21.4971 7.6 21.4971 10.1829C21.4971 12.7429 20.6743 14.72 19.0286 16.1143C17.4057 17.4857 15.0629 18.1714 12 18.1714H7.98857V24.8229H0V2.19429H12ZM10.6971 12.5143C11.5657 12.5143 12.2514 12.3314 12.7543 11.9657C13.2571 11.5771 13.5086 10.9829 13.5086 10.1829C13.5086 9.38286 13.2571 8.8 12.7543 8.43429C12.2514 8.04571 11.5657 7.85143 10.6971 7.85143H7.98857V12.5143H10.6971Z" fill="#08A0F7"/>
<path d="M37.2019 0.822856V18C37.2019 18.6857 37.3047 19.1886 37.5104 19.5086C37.7162 19.8286 38.0819 19.9886 38.6076 19.9886C38.859 19.9886 39.0762 19.9771 39.259 19.9543C39.4647 19.9086 39.659 19.8629 39.8419 19.8171L39.499 24.0686C39.0647 24.3886 38.4362 24.6514 37.6133 24.8571C36.8133 25.0629 36.0247 25.1657 35.2476 25.1657C33.1219 25.1657 31.6019 24.7086 30.6876 23.7943C29.7733 22.88 29.3162 21.3486 29.3162 19.2V0.822856H37.2019Z" fill="#08A0F7"/>
<path d="M56.2138 14.1257C56.2138 13.0057 55.7224 12.4457 54.7396 12.4457C54.2596 12.4457 53.8596 12.5829 53.5396 12.8571C53.2196 13.1314 53.0367 13.68 52.991 14.5029L46.3396 13.5429C46.4995 11.6457 47.3224 10.1371 48.8081 9.01714C50.2938 7.89714 52.4538 7.33714 55.2881 7.33714C58.2596 7.33714 60.4538 7.94286 61.871 9.15429C63.311 10.3429 64.031 11.92 64.031 13.8857V19.2C64.031 20.1371 64.4767 20.6057 65.3681 20.6057C65.6196 20.6057 65.8138 20.5714 65.951 20.5029L65.6081 24.5486C64.7624 24.96 63.7453 25.1657 62.5567 25.1657C61.231 25.1657 60.0996 24.9371 59.1624 24.48C58.2253 24.0229 57.5967 23.3257 57.2767 22.3886C56.8196 23.2114 56.0996 23.8857 55.1167 24.4114C54.1338 24.9143 53.0138 25.1657 51.7567 25.1657C49.951 25.1657 48.5567 24.7657 47.5738 23.9657C46.6138 23.1429 46.1338 22.0229 46.1338 20.6057C46.1338 19.3486 46.5338 18.3314 47.3338 17.5543C48.1338 16.7543 49.2881 16.2057 50.7967 15.9086L56.2138 14.7771V14.1257ZM53.5396 19.44C53.5396 19.8057 53.6538 20.1029 53.8824 20.3314C54.111 20.56 54.431 20.6743 54.8424 20.6743C55.231 20.6743 55.551 20.5371 55.8024 20.2629C56.0767 19.9886 56.2138 19.6 56.2138 19.0971V17.5886L54.8767 17.8971C53.9853 18.1257 53.5396 18.64 53.5396 19.44Z" fill="#08A0F7"/>
<path d="M90.7639 7.68L85.7239 22.9029C84.9696 25.1657 84.1239 26.9714 83.1868 28.32C82.2725 29.6914 81.1639 30.6743 79.8611 31.2686C78.5811 31.8857 77.0154 32.1943 75.1639 32.1943C74.0668 32.1943 73.0725 32.0914 72.1811 31.8857C71.2896 31.68 70.5239 31.4057 69.8839 31.0629L71.3239 26.0914C71.6896 26.2971 72.0782 26.4457 72.4896 26.5371C72.9239 26.6286 73.5525 26.6743 74.3754 26.6743C75.1068 26.6743 75.6439 26.6057 75.9868 26.4686C76.3525 26.3314 76.6039 26.0914 76.7411 25.7486L76.8439 25.4743L74.6839 20.4343L69.7811 7.68H78.3868L79.9296 16.5257L80.5811 20.5371L81.3354 16.4914L83.0496 7.68H90.7639Z" fill="#08A0F7"/>
<path d="M105.121 0.822856V18C105.121 18.6857 105.224 19.1886 105.43 19.5086C105.635 19.8286 106.001 19.9886 106.527 19.9886C106.778 19.9886 106.995 19.9771 107.178 19.9543C107.384 19.9086 107.578 19.8629 107.761 19.8171L107.418 24.0686C106.984 24.3886 106.355 24.6514 105.532 24.8571C104.732 25.0629 103.944 25.1657 103.167 25.1657C101.041 25.1657 99.5211 24.7086 98.6068 23.7943C97.6925 22.88 97.2354 21.3486 97.2354 19.2V0.822856H105.121Z" fill="#08A0F7"/>
<path d="M118.349 6.58286C116.795 6.58286 115.686 6.33143 115.023 5.82857C114.383 5.32571 114.063 4.48 114.063 3.29143C114.063 2.08 114.383 1.23429 115.023 0.754286C115.686 0.251428 116.795 0 118.349 0C119.903 0 121.001 0.251428 121.641 0.754286C122.303 1.23429 122.635 2.08 122.635 3.29143C122.635 4.48 122.303 5.32571 121.641 5.82857C121.001 6.33143 119.903 6.58286 118.349 6.58286ZM122.292 7.68V24.8229H114.406V7.68H122.292Z" fill="#08A0F7"/>
<path d="M138.325 25.1657C136.656 25.1657 135.045 24.9371 133.49 24.48C131.959 24.0229 130.622 23.3371 129.479 22.4229L132.29 18.3429C132.908 18.8914 133.719 19.3829 134.725 19.8171C135.73 20.2286 136.736 20.4343 137.742 20.4343C138.13 20.4343 138.473 20.3886 138.77 20.2971C139.09 20.2057 139.25 20.0457 139.25 19.8171C139.25 19.6343 139.159 19.4971 138.976 19.4057C138.816 19.3143 138.45 19.2229 137.879 19.1314L136.645 18.8914C134.153 18.4114 132.393 17.7257 131.365 16.8343C130.336 15.9429 129.822 14.7429 129.822 13.2343C129.822 12.2971 130.119 11.3829 130.713 10.4914C131.33 9.57714 132.302 8.82286 133.628 8.22857C134.953 7.63428 136.702 7.33714 138.873 7.33714C140.656 7.33714 142.256 7.56571 143.673 8.02286C145.09 8.45714 146.245 9.06286 147.136 9.84L144.428 13.7486C143.788 13.2457 142.965 12.8457 141.959 12.5486C140.976 12.2286 140.073 12.0686 139.25 12.0686C138.679 12.0686 138.279 12.1257 138.05 12.24C137.822 12.3314 137.708 12.4571 137.708 12.6171C137.708 12.7771 137.822 12.9257 138.05 13.0629C138.279 13.2 138.725 13.3257 139.388 13.44L141.822 13.8514C143.673 14.1486 145.022 14.7429 145.868 15.6343C146.736 16.5257 147.17 17.6229 147.17 18.9257C147.17 20.0457 146.862 21.0857 146.245 22.0457C145.65 22.9829 144.702 23.7371 143.399 24.3086C142.119 24.88 140.428 25.1657 138.325 25.1657Z" fill="#08A0F7"/>
<path d="M167.985 7.68V12.9943H163.665V17.8286C163.665 18.6057 163.825 19.1657 164.145 19.5086C164.488 19.8286 165.013 19.9886 165.722 19.9886C166.568 19.9886 167.288 19.84 167.882 19.5429L168.225 24C167.653 24.3657 166.876 24.6514 165.893 24.8571C164.91 25.0629 163.985 25.1657 163.116 25.1657C160.716 25.1657 158.888 24.7086 157.63 23.7943C156.396 22.8571 155.779 21.28 155.779 19.0629V12.9943H153.139V7.68H155.779V4.04571L163.665 1.85143V7.68H167.985Z" fill="#08A0F7"/>
</svg>
