<svg width="18" height="21" viewBox="0 0 18 21" fill="none" xmlns="http://www.w3.org/2000/svg">
<g clip-path="url(#clip0_302_2)">
<path d="M8.30664 20.8612C7.77269 20.8612 7.31503 20.6683 6.93364 20.2825C6.55225 19.8967 6.36156 19.4414 6.36156 18.9168H10.2517C10.2517 19.4414 10.061 19.8967 9.67964 20.2825C9.29825 20.6683 8.84058 20.8612 8.30664 20.8612ZM14.6453 14.9353L16.6133 16.926V17.8982H0V16.926L1.96796 14.9353V9.51861C1.96796 8.00626 2.42563 6.67138 3.34096 5.51398C4.25629 4.35657 5.41571 3.60811 6.81922 3.26861V2.62046C6.81922 2.18836 6.96415 1.83342 7.25401 1.55564C7.54386 1.27787 7.89474 1.13898 8.30664 1.13898C8.71854 1.13898 9.06179 1.27787 9.33639 1.55564C9.61099 1.83342 9.74829 2.18836 9.74829 2.62046V3.26861C11.1823 3.60811 13.2723 5.51398 13.2723 5.51398C13.2723 5.51398 14.6453 8.00626 14.6453 9.51861V14.9353Z" fill="#26334A"/>
</g>
<path d="M16.5614 4.26481C16.5614 6.06441 15.0961 7.52961 13.2807 7.52961C11.4653 7.52961 10 6.06441 10 4.26481C10 2.46521 11.4653 1 13.2807 1C15.0961 1 16.5614 2.46521 16.5614 4.26481Z" fill="#FB0000" stroke="white" stroke-width="2"/>
<defs>
<clipPath id="clip0_302_2">
<rect width="16.8421" height="20" fill="white" transform="translate(0 1)"/>
</clipPath>
</defs>
</svg>
