<svg width="21" height="20" viewBox="0 0 21 20" fill="none" xmlns="http://www.w3.org/2000/svg">
<path d="M10.5652 7.27699C9.8596 7.27699 9.1988 7.53629 8.69848 8.01017C8.20052 8.48405 7.9244 9.10993 7.9244 9.77828C7.9244 10.4466 8.20052 11.0725 8.69848 11.5464C9.1988 12.018 9.8596 12.2796 10.5652 12.2796C11.2709 12.2796 11.9317 12.018 12.432 11.5464C12.93 11.0725 13.2061 10.4466 13.2061 9.77828C13.2061 9.10993 12.93 8.48405 12.432 8.01017C12.1876 7.77693 11.8968 7.59201 11.5763 7.46615C11.2558 7.34028 10.9122 7.27599 10.5652 7.27699ZM20.2955 12.5411L18.7521 11.2916C18.8252 10.8669 18.863 10.4332 18.863 10.0018C18.863 9.5704 18.8252 9.13452 18.7521 8.71205L20.2955 7.46252C20.4121 7.36798 20.4956 7.24207 20.5348 7.10152C20.574 6.96097 20.5671 6.81245 20.515 6.6757L20.4938 6.61758C20.069 5.49254 19.4325 4.4497 18.6152 3.53958L18.5727 3.49264C18.4735 3.38211 18.3412 3.30266 18.1933 3.26475C18.0455 3.22684 17.8889 3.23226 17.7444 3.28029L15.828 3.92629C15.12 3.37641 14.3318 2.94276 13.4775 2.641L13.107 0.743235C13.079 0.60027 13.0058 0.468746 12.897 0.366136C12.7883 0.263526 12.6491 0.194687 12.4981 0.168765L12.4344 0.157588C11.2072 -0.0525293 9.91388 -0.0525293 8.68668 0.157588L8.62296 0.168765C8.47191 0.194687 8.33276 0.263526 8.22401 0.366136C8.11525 0.468746 8.04203 0.60027 8.01408 0.743235L7.6412 2.64994C6.79497 2.95411 6.00665 3.3867 5.30716 3.93076L3.37667 3.28029C3.23216 3.23188 3.07552 3.22626 2.92755 3.2642C2.77959 3.30213 2.64732 3.3818 2.54831 3.49264L2.50583 3.53958C1.68996 4.45067 1.05366 5.49325 0.627272 6.61758L0.606032 6.6757C0.499831 6.95511 0.587152 7.26805 0.825512 7.46252L2.38783 8.72546C2.31467 9.1457 2.27927 9.57487 2.27927 9.99958C2.27927 10.4288 2.31467 10.8579 2.38783 11.2737L0.830232 12.5366C0.713638 12.6312 0.63019 12.7571 0.590984 12.8976C0.551779 13.0382 0.558673 13.1867 0.610751 13.3235L0.631992 13.3816C1.05915 14.5059 1.68927 15.5453 2.51055 16.4596L2.55303 16.5065C2.65228 16.617 2.78456 16.6965 2.93243 16.7344C3.08031 16.7723 3.23684 16.7669 3.38139 16.7189L5.31188 16.0684C6.01516 16.616 6.79868 17.0497 7.64592 17.3492L8.0188 19.2559C8.04675 19.3989 8.11997 19.5304 8.22873 19.633C8.33749 19.7356 8.47663 19.8045 8.62768 19.8304L8.6914 19.8416C9.93067 20.0528 11.1998 20.0528 12.4391 19.8416L12.5028 19.8304C12.6538 19.8045 12.793 19.7356 12.9018 19.633C13.0105 19.5304 13.0837 19.3989 13.1117 19.2559L13.4822 17.3582C14.3365 17.0542 15.1248 16.6227 15.8328 16.0729L17.7491 16.7189C17.8936 16.7673 18.0502 16.7729 18.1982 16.735C18.3462 16.697 18.4784 16.6173 18.5774 16.5065L18.6199 16.4596C19.4412 15.5409 20.0713 14.5059 20.4985 13.3816L20.5197 13.3235C20.6212 13.0463 20.5339 12.7356 20.2955 12.5411ZM10.5652 13.7079C8.27368 13.7079 6.41636 11.9488 6.41636 9.77828C6.41636 7.60781 8.27368 5.84864 10.5652 5.84864C12.8568 5.84864 14.7141 7.60781 14.7141 9.77828C14.7141 11.9488 12.8568 13.7079 10.5652 13.7079Z" fill="#BBD0E2" fill-opacity="0.5"/>
</svg>
